<?xml version="1.0" standalone="no"?>
<!DOCTYPE svg PUBLIC "-//W3C//DTD SVG 1.1//EN" "http://www.w3.org/Graphics/SVG/1.1/DTD/svg11.dtd">
<svg xmlns="http://www.w3.org/2000/svg">
<metadata>Generated by Fontastic.me</metadata>
<defs>
<font id="sm-icon" horiz-adv-x="512">
<font-face font-family="sm-icon" units-per-em="512" ascent="480" descent="-32"/>
<missing-glyph horiz-adv-x="512" />

<glyph glyph-name="dashbaord" unicode="&#97;" d="M512 209c0-56-18-109-52-154-6-9-19-11-28-4-9 7-10 19-4 28 29 38 44 83 44 130 0 119-97 216-216 216-119 0-216-97-216-216 0-47 15-92 44-130 6-9 5-21-4-28-9-7-22-5-28 4-34 45-52 98-52 154 0 142 115 256 256 256 142 0 256-114 256-256z m-129 121c8-8 8-21 0-29l-65-65c5-10 8-21 8-33 0-39-31-70-70-70-39 0-70 31-70 70 0 38 31 70 70 70 12 0 23-3 33-9l65 66c8 7 21 7 29 0z m-97-127c0 16-13 30-30 30-17 0-30-14-30-30 0-17 13-30 30-30 17 0 30 13 30 30z"/>
<glyph glyph-name="user" unicode="&#98;" d="M254 236c1 0 1 0 2 0 0 0 0 0 0 0 1 0 1 0 2 0 31 1 56 12 74 32 41 46 34 125 34 133-3 56-30 83-52 96-16 9-35 15-57 15l-1 0c0 0 0 0 0 0l-1 0c-11 0-35-2-57-15-22-12-49-39-52-96-1-8-7-87 34-133 18-20 43-31 74-32z m-79 162c0 1 0 1 0 1 3 76 57 84 80 84l1 0c0 0 0 0 0 0 29 0 78-12 81-84 0 0 0-1 0-1 0-1 8-73-26-111-13-15-31-22-55-22 0 0 0 0 0 0 0 0 0 0-1 0-23 0-41 7-54 22-34 38-27 111-26 111z m299-293c0 0 0 0 0 1 0 0 0 1 0 2-1 21-2 70-48 86-1 0-1 0-1 0-48 13-88 40-88 40-7 5-16 3-20-3-5-7-3-15 3-20 2-1 44-31 97-44 25-9 27-35 28-60 0-1 0-1 0-2 0-10 0-25-2-33-17-10-85-43-187-43-102 0-170 33-187 43-2 9-2 23-2 33 0 1 0 2 0 3 1 24 3 50 28 59 53 13 95 43 97 44 6 5 8 14 3 20-4 6-13 8-20 4 0-1-39-28-88-41 0 0 0 0-1 0-46-16-47-65-48-86 0-1 0-1 0-2 0 0 0-1 0-1 0-5 0-33 6-48 1-2 3-5 5-6 3-2 80-51 207-51 128 0 204 49 207 51 3 1 5 4 6 6 5 14 5 43 5 48z"/>
<glyph glyph-name="close" unicode="&#99;" d="M256 512c-141 0-256-115-256-256 0-141 115-256 256-256 141 0 256 115 256 256 0 141-115 256-256 256z m0-475c-121 0-219 98-219 219 0 121 98 219 219 219 121 0 219-98 219-219 0-121-98-219-219-219z m78 297c-7 8-18 8-25 0l-53-52-53 52c-7 8-18 8-25 0-8-7-8-18 0-25l52-53-52-53c-8-7-8-18 0-25 3-4 8-6 12-6 5 0 10 2 13 6l53 52 53-52c3-4 8-6 13-6 4 0 9 2 12 6 8 7 8 18 0 25l-52 53 52 53c8 7 8 18 0 25z"/>
<glyph glyph-name="tick" unicode="&#100;" d="M256 512c-141 0-256-115-256-256 0-141 115-256 256-256 141 0 256 115 256 256 0 141-115 256-256 256z m0-473c-119 0-217 98-217 217 0 119 98 217 217 217 119 0 217-98 217-217 0-119-98-217-217-217z m91 297l-130-131-52 52-28-28 80-80 158 159z"/>
<glyph glyph-name="edit-1" unicode="&#101;" d="M392 0l-272 0c-66 0-120 54-120 120l0 272c0 66 54 120 120 120l272 0c66 0 120-54 120-120l0-272c0-66-54-120-120-120z m-272 472c-44 0-80-36-80-80l0-272c0-44 36-80 80-80l272 0c44 0 80 36 80 80l0 272c0 44-36 80-80 80z m17-312c-5 0-10 2-14 6-5 5-7 11-6 18l12 57c5 28 19 53 39 74l96 96c28 28 76 28 104 0 28-28 28-76 0-104l-96-96c-21-20-46-34-74-39l-57-12c-1 0-3 0-4 0z m179 232c-9 0-17-3-23-10l-96-96c-15-14-25-33-29-53l-6-28 28 6c20 4 39 14 53 29l96 96c13 12 13 34 0 46-6 7-14 10-23 10z m112-292c0 11-9 20-20 20l-304 0c-27-1-27-39 0-40l304 0c11 0 20 9 20 20z"/>
<glyph glyph-name="print" unicode="&#102;" d="M459 128l-64 0c-6 0-11 5-11 11 0 6 5 10 11 10l64 0c17 0 32 15 32 32l0 150c0 17-15 32-32 32l-406 0c-17 0-32-15-32-32l0-150c0-17 15-32 32-32l64 0c6 0 11-4 11-10 0-6-5-11-11-11l-64 0c-29 0-53 24-53 53l0 150c0 29 24 53 53 53l406 0c29 0 53-24 53-53l0-150c0-29-24-53-53-53z m-150-64l-128 0c-6 0-10 5-10 11 0 6 4 10 10 10l128 0c6 0 11-4 11-10 0-6-5-11-11-11z m0 43l-128 0c-6 0-10 4-10 10 0 6 4 11 10 11l128 0c6 0 11-5 11-11 0-6-5-10-11-10z m-85 42l-43 0c-6 0-10 5-10 11 0 6 4 11 10 11l43 0c6 0 11-5 11-11 0-6-5-11-11-11z m171 214c-6 0-11 4-11 10l0 86c0 17-14 32-32 32l-192 0c-18 0-32-15-32-32l0-86c0-6-5-10-11-10-6 0-10 4-10 10l0 86c0 29 24 53 53 53l192 0c29 0 53-24 53-53l0-86c0-6-4-10-10-10z m-43-363l-192 0c-29 0-53 24-53 53l0 171c0 6 4 11 10 11l278 0c6 0 10-5 10-11l0-171c0-29-24-53-53-53z m-224 213l0-160c0-17 14-32 32-32l192 0c18 0 32 15 32 32l0 160z"/>
<glyph glyph-name="document" unicode="&#103;" d="M479 496l-355 0c-7 0-13-6-13-13l-3-314-76 0c-7 0-13-6-13-14l0-49c0-48 36-87 82-90 1 0 2 0 3 0l296 0c0 0 1 0 1 0 1 0 2 0 3 0 49 0 88 40 88 90l0 377c0 7-6 13-13 13z m-433-390l0 36 270 0 0-36c0-24 9-46 26-63l-235 0c-34 0-61 28-61 63z m420 0c0-35-28-63-62-63-34 0-61 28-61 63l0 49c0 8-6 14-14 14l-195 0 3 300 329 0z m-260 291l62 0c7 0 13 6 13 13 0 8-6 14-13 14l-62 0c-8 0-14-6-14-14 0-7 6-13 14-13z m0-88l181 0c7 0 13 6 13 13 0 8-6 14-13 14l-181 0c-8 0-14-6-14-14 0-7 6-13 14-13z m0-88l181 0c7 0 13 6 13 14 0 7-6 13-13 13l-181 0c-8 0-14-6-14-13 0-8 6-14 14-14z"/>
<glyph glyph-name="menu" unicode="&#104;" d="M16 352l480 0c9 0 16 7 16 16 0 9-7 16-16 16l-480 0c-9 0-16-7-16-16 0-9 7-16 16-16z m480-80l-480 0c-9 0-16-7-16-16 0-9 7-16 16-16l480 0c9 0 16 7 16 16 0 9-7 16-16 16z m0-112l-320 0c-9 0-16-7-16-16 0-9 7-16 16-16l320 0c9 0 16 7 16 16 0 9-7 16-16 16z"/>
<glyph glyph-name="add" unicode="&#105;" d="M256 512c-141 0-256-115-256-256 0-141 115-256 256-256 141 0 256 115 256 256 0 141-115 256-256 256z m0-472c-119 0-216 97-216 216 0 119 97 216 216 216 119 0 216-97 216-216 0-119-97-216-216-216z m99 238l-79 0 0 79c0 11-9 20-20 20-11 0-20-9-20-20l0-79-79 0c-11 0-20-9-20-20 0-11 9-20 20-20l79 0 0-79c0-11 9-20 20-20 11 0 20 9 20 20l0 79 79 0c11 0 20 9 20 20 0 11-9 20-20 20z"/>
<glyph glyph-name="arrow-down-sign-to-navigate" unicode="&#106;" d="M256 110c-9 0-18 4-25 11l-220 220c-15 14-15 36 0 50 13 14 36 14 50 0l195-194 195 194c14 14 36 14 50 0 14-14 14-36 0-50l-220-220c-7-7-16-11-25-11z"/>
<glyph glyph-name="back" unicode="&#107;" d="M167 431c7 7 19 7 26 0 7-7 7-19 0-26l-131-131 432 0c10 0 18-8 18-18 0-10-8-18-18-18l-432 0 131-131c7-7 7-19 0-26-7-7-19-7-26 0l-162 162c-7 7-7 19 0 26z"/>
<glyph glyph-name="bill" unicode="&#108;" d="M475 266l-74 0 0 236c0 4-2 8-6 9-4 2-8 1-11-2l-28-28-29 28c-4 4-10 4-14 0l-28-28-29 28c-3 4-10 4-14 0l-28-28-28 28c-4 4-11 4-14 0l-29-28-28 28c-4 4-10 4-14 0l-29-28-28 28c-4 4-10 4-14 0-2-2-3-5-3-7l0-450c0-29 23-52 52-52l354 0c0 0 0 0 0 0 0 0 0 0 0 0 29 0 52 23 52 52l0 204c0 6-4 10-10 10z m-396-246c-18 0-32 14-32 32l0 426 18-18c4-4 11-4 14 0l29 28 28-28c4-4 10-4 14 0l29 28 28-28c4-4 10-4 14 0l28 28 29-28c4-4 10-4 14 0l28 28 29-28c3-4 10-4 14 0l18 18 0-222c0 0 0 0 0 0l0-204c0-12 4-23 11-32z m386 32c0-18-14-32-32-32-18 0-32 14-32 32l0 194 64 0z m-251 301c-10 0-18 7-18 16 0 8 8 15 18 15 10 0 18-7 18-15 0-6 4-10 10-10 6 0 10 4 10 10 0 16-12 30-28 34l0 6c0 6-4 10-10 10-6 0-10-4-10-10l0-6c-16-4-28-18-28-34 0-20 17-36 38-36 10 0 18-7 18-15 0-9-8-16-18-16-10 0-18 7-18 16 0 5-4 10-10 10-6 0-10-5-10-10 0-17 12-30 28-34l0-9c0-5 4-10 10-10 6 0 10 5 10 10l0 9c16 4 28 17 28 34 0 19-17 35-38 35z m100 0l-19 0c-6 0-10-4-10-10 0-5 4-10 10-10l19 0c6 0 10 5 10 10 0 6-4 10-10 10z m-181 0l-19 0c-6 0-10-4-10-10 0-5 4-10 10-10l19 0c6 0 10 5 10 10 0 6-4 10-10 10z m187-111l-159 0c-5 0-10-4-10-10 0-6 5-10 10-10l159 0c5 0 10 4 10 10 0 6-5 10-10 10z m-204-3c-2 2-5 3-8 3-2 0-5-1-7-3-1-2-3-4-3-7 0-3 2-5 3-7 2-2 5-3 7-3 3 0 6 1 8 3 1 2 2 4 2 7 0 3-1 5-2 7z m204-63l-159 0c-5 0-10-4-10-10 0-6 5-10 10-10l159 0c5 0 10 4 10 10 0 6-5 10-10 10z m-204-3c-2 2-5 3-8 3-2 0-5-1-7-3-1-2-3-4-3-7 0-3 2-5 3-7 2-2 5-3 7-3 3 0 6 1 8 3 1 2 2 4 2 7 0 3-1 5-2 7z m204-63l-159 0c-5 0-10-4-10-10 0-6 5-10 10-10l159 0c5 0 10 4 10 10 0 6-5 10-10 10z m-204-3c-2 2-5 3-8 3-2 0-5-1-7-3-1-2-3-4-3-7 0-3 2-5 3-7 2-2 5-3 7-3 3 0 6 1 8 3 1 2 2 4 2 7 0 3-1 5-2 7z"/>
<glyph glyph-name="call" unicode="&#109;" d="M232 122c-3-4-3-11 0-14 4-4 11-4 15 0 4 3 4 10 0 14-4 4-11 4-15 0z m257 17l-76 65c0 0-1 0-1 0-20 13-46 10-62-6l-42-42c-3-3-7-4-11-2-46 19-85 48-114 87-22 29-30 52-31 55 0 1 0 1 0 2-2 4-1 8 2 11l41 41c17 17 20 43 7 62 0 1 0 1 0 1l-55 76c-17 27-55 31-78 8l-8-8c0 0 0 0 0 0l-29-30c-36-35-42-88-17-153 21-56 62-117 117-172 57-56 119-98 177-119 57-21 117-24 160 19l28 28c22 22 18 60-8 77z m-88 49l75-65c1 0 1 0 2 0 16-11 18-33 5-47l-2-2-130 97 13 12c10 10 25 12 37 5z m-271 290c0 0 0 0 0 0l55-77c8-11 6-27-4-37l-12-12-88 129 3 2c13 14 36 11 46-5z m186-445c-55 20-115 61-169 116-53 53-94 111-113 164-15 40-25 95 12 132l21 21 87-128-14-15c-9-8-11-21-7-32 3-13 17-40 32-60 22-29 61-69 125-95 11-5 24-3 32 6l15 15 129-97-11-12c-40-40-98-30-139-15z m-102 113c-11 9-29 25-39 35-23 24-48 53-63 75-3 4-9 5-14 2-4-3-5-9-2-14 18-27 46-57 65-77 10-11 29-27 40-36 4-4 10-4 14 0 3 5 3 11-1 15z"/>
<glyph glyph-name="coffee" unicode="&#110;" d="M450 452l-17 0-19 46c-4 8-12 14-22 14l-272 0c-10 0-18-6-22-14l-19-46-17 0c-11 0-20-9-20-20l0-44c0-11 9-20 20-20l12 0 48-347c2-12 12-21 24-21l220 0c12 0 22 9 24 21l48 347 12 0c11 0 20 9 20 20l0 44c0 11-9 20-20 20z m-80-429c0-2-2-3-4-3l-220 0c-2 0-4 1-4 3l-47 345 322 0z m80 365l-388 0 0 44 225 0c5 0 10 5 10 10 0 6-5 10-10 10l-187 0 16 38c1 1 2 2 4 2l272 0c2 0 3-1 4-2l16-38-45 0c-6 0-10-4-10-10 0-5 4-10 10-10l60 0c0 0 0 0 0 0 0 0 0 0 0 0l23 0z m-302-188c0-59 48-108 108-108 60 0 108 49 108 108 0 60-48 108-108 108-60 0-108-48-108-108z m108 88c49 0 88-39 88-88 0-48-39-88-88-88-49 0-88 40-88 88 0 49 39 88 88 88z m-48-136c13-13 30-20 48-20 18 0 35 7 48 20 13 13 20 30 20 48 0 18-7 35-20 48-13 13-30 20-48 20-18 0-35-7-48-20-13-13-20-30-20-48 0-18 7-35 20-48z m82 14c-9-9-21-14-34-14-11 0-21 4-30 10 1 16 14 28 30 28 20 0 36 11 45 28 2-6 3-12 3-18 0-13-5-25-14-34z m-68 68c9 9 21 14 34 14 11 0 21-3 30-10-1-16-14-28-30-28-20 0-36-11-45-28-2 6-3 12-3 18 0 13 5 25 14 34z m105 218c-3 0-5-1-7-3-2-2-3-4-3-7 0-3 1-5 3-7 2-2 4-3 7-3 2 0 5 1 7 3 2 2 3 4 3 7 0 3-1 5-3 7-2 2-5 3-7 3z"/>
<glyph glyph-name="config" unicode="&#111;" d="M464 444l-271 0-3 5c-13 17-33 27-54 27l-88 0c-26 0-48-21-48-47l0-356c0-21 17-37 37-37l438 0c20 0 37 16 37 37l0 323c0 26-22 48-48 48z m-314-388c5 53 51 95 105 95 55 0 100-42 105-95z m230 0c-5 64-59 115-125 115-65 0-120-51-125-115l-64 0c0 6 1 12 2 18l19 5c3 1 6 3 7 7 4 16 10 31 18 45 2 3 2 7 0 11l-10 15c12 16 26 30 42 41l15-10c3-2 7-2 11 0 14 9 29 15 45 19 3 1 6 4 7 7l5 19c19 2 38 2 57 0l5-19c0-3 3-6 7-7 16-4 31-10 45-19 3-2 7-2 10 0l16 10c16-11 30-25 41-41l-10-15c-2-4-2-8 0-11 9-14 15-29 19-45 1-4 3-6 7-7l19-5c1-6 1-12 2-18z m112 17c0-10-8-17-17-17l-10 0c-1 9-2 19-4 28 0 4-3 7-7 8l-19 5c-4 13-10 26-17 39l11 16c2 3 2 8 0 11-15 22-34 41-56 56-3 2-8 2-11 0l-16-10c-13 6-26 12-40 16l-5 19c0 4-4 7-7 7-25 5-52 5-77 0-4 0-7-3-8-7l-5-19c-14-4-27-10-39-16l-16 10c-4 2-8 2-11 0-22-15-41-34-56-56-2-3-2-8 0-11l10-16c-7-13-12-26-16-39l-19-5c-4-1-7-4-8-8-1-9-3-19-3-28l-9 0c-9 0-17 7-17 17l0 261c0 13 11 24 24 24l61 0c5 0 10 4 10 10 0 5-5 10-10 10l-61 0c-9 0-17-3-24-7l0 58c0 15 13 27 28 27l88 0c15 0 29-7 37-19l6-9c2-3 5-4 9-4l276 0c15 0 28-13 28-28l0-25c-7 4-15 7-24 7l-272 0c-6 0-10-5-10-10 0-6 4-10 10-10l272 0c13 0 24-11 24-24z m-342 285c-4 0-8 3-9 7-2 3-1 8 3 11 3 2 8 3 11 0 4-2 6-6 5-10-1-5-5-8-10-8z"/>
<glyph glyph-name="cook" unicode="&#112;" d="M486 259l-131 0c1 3 1 6-1 9-3 5-8 8-13 8l-326 0c-5 0-10-3-13-8-3-4-3-10 0-15l14-24c3-5 5-11 5-17l0-4c0-29 24-54 54-54l206 0c29 0 53 24 54 52l151 0c14 0 26 12 26 26 0 15-12 27-26 27z m-205-87l-206 0c-9 0-17 3-24 8l97 0c4 0 8 4 8 9 0 5-4 9-8 9l-108 0c-1 3-1 5-1 8l76 0c5 0 9 4 9 9 0 5-4 9-9 9l-78 0c-1 5-3 10-6 14l-12 21 318 0-12-21c-1-2-2-3-3-5-1-1-1-3-2-4 0-1 0-1 0-2-1-1-1-3-1-5 0 0-1 0-1-1 0-1 0-3 0-5 0 0 0 0 0 0l-1-10 0 0c-1-19-16-34-36-34z m205 52l-149 0c0 0 0 0 0 0 1 2 2 4 2 5 0 0 0 0 1 0l7 12 139 0c5 0 9-4 9-9 0-4-4-8-9-8z m-156-165l-43 0c15 11 24 20 25 30 2 11-5 20-17 35-2 3-4 6-7 10l-5 6-7-5c-16-12-25-20-26-31-2-11 5-20 17-35 2-3 4-6 7-9l1-1-90 0c15 11 24 20 25 30 2 11-5 20-17 35-2 3-4 6-7 10l-5 6-7-5c-16-12-25-20-26-31-2-11 5-20 17-35 2-3 4-6 7-9l1-1-92 0c15 11 24 20 25 30 2 11-5 20-17 35-2 3-5 6-7 10l-5 6-7-5c-16-12-25-20-26-31-2-11 5-20 17-35 2-3 4-6 7-9l1-1-34 0c-5 0-9-4-9-9 0-5 4-8 9-8l295 0c5 0 8 3 8 8 0 5-3 9-8 9z m-63 43c0 4 6 9 12 14 1-1 2-2 3-3 8-10 14-18 13-22 0-3-6-9-12-14-1 1-2 2-3 3-8 10-14 18-13 22z m-102 0c0 4 6 9 12 14 1-1 2-2 3-3 8-10 14-18 13-22 0-3-6-9-12-14-1 1-2 2-3 3-8 10-14 18-13 22z m-104 0c0 4 6 9 12 14 1-1 2-2 2-3 9-10 14-18 14-22-1-3-6-9-13-14 0 1-1 2-2 3-8 10-14 18-13 22z m19 250c0-16 7-32 18-43 2-2 4-3 6-3 2 0 5 1 6 3 4 3 4 9 0 12-8 8-12 19-12 31 0 11 4 22 12 31 12 11 18 26 18 43 0 16-6 31-18 42-3 4-9 4-12 0-3-3-3-8 0-12 8-8 13-19 13-30 0-12-5-23-13-31-11-12-18-27-18-43z m106 0c0-16 7-32 18-43 2-2 4-3 6-3 3 0 5 1 7 3 3 3 3 9 0 12-9 8-13 19-13 31 0 11 4 22 13 31 11 11 17 26 17 43 0 16-6 31-17 42-4 4-9 4-13 0-3-3-3-8 0-12 8-8 13-19 13-30 0-12-5-23-13-31-11-12-18-27-18-43z"/>
<glyph glyph-name="cooking" unicode="&#113;" d="M504 285l-58 0 0 16c0 5-4 9-8 9l-364 0c-4 0-8-4-8-9l0-16-58 0c-4 0-8-4-8-8l0-25c0-14 11-25 25-25l41 0 0-107c0-60 48-108 107-108l166 0c59 0 107 48 107 108l0 107 41 0c14 0 25 11 25 25l0 25c0 4-4 8-8 8z m-479-41c-5 0-8 3-8 8l0 16 49 0 0-24z m404-124c0-50-40-91-90-91l-166 0c-50 0-90 41-90 91l0 173 346 0z m66 132c0-5-3-8-8-8l-41 0 0 24 49 0z m-280-149l-108 0c-4 0-8-3-8-8 0-5 4-8 8-8l108 0c4 0 8 3 8 8 0 5-4 8-8 8z m41 0l-17 0c-4 0-8-3-8-8 0-5 4-8 8-8l17 0c5 0 8 3 8 8 0 5-3 8-8 8z m-165 223c0-4 4-8 8-8 5 0 8 4 8 8 0 9 3 17 7 23 7 10 10 21 10 32 0 12-3 23-10 32-4 7-7 15-7 23 0 9 3 17 7 24 7 9 10 20 10 31 0 5-4 9-8 9-5 0-9-4-9-9 1-8-2-16-7-23-6-9-9-20-9-32 0-11 3-22 9-31 5-7 8-15 7-24 1-8-2-16-7-23-6-9-9-20-9-32z m66 0c0-4 4-8 8-8 5 0 8 4 8 8 0 9 3 17 7 23 7 10 10 21 10 32 0 12-3 23-10 32-4 7-7 15-7 23 0 9 3 17 7 24 7 9 10 20 10 31 0 5-4 9-8 9-5 0-9-4-9-9 1-8-2-16-7-23-6-9-9-20-9-32 0-11 3-22 9-31 5-7 8-15 7-24 1-8-2-16-7-23-6-9-9-20-9-32z m66 0c0-4 4-8 8-8 5 0 8 4 8 8 0 9 3 17 8 23 6 10 9 21 9 32 0 12-3 23-9 32-5 7-8 15-8 23 0 9 3 17 8 24 6 9 9 20 9 31 0 5-4 9-8 9-5 0-9-4-9-9 1-8-2-16-7-23-6-9-9-20-9-32 0-11 3-22 9-31 5-7 8-15 7-24 1-8-2-16-7-23-6-9-9-20-9-32z m91 0c18 0 33 15 33 33 0 18-15 33-33 33-18 0-33-15-33-33 0-18 15-33 33-33z m0 50c9 0 16-8 16-17 0-9-7-16-16-16-9 0-17 7-17 16 0 9 8 17 17 17z m66 16c14 0 25 11 25 25 0 14-11 25-25 25-14 0-25-11-25-25 0-14 11-25 25-25z m0 33c4 0 8-3 8-8 0-5-4-8-8-8-5 0-8 3-8 8 0 5 3 8 8 8z"/>
<glyph glyph-name="cooking-1" unicode="&#114;" d="M79 16l332 0 0-16-332 0z m161 11l114 0-30 45-27-41-27 41-25-39-26 39-27-41-27 41-30-45z m183 231c-6-2-14-9-19-14 0 12-1 21-1 23l11 0 0 16-320 0 0-16 13 0c0-2-1-11-1-24-5 5-11 10-16 12-10 3-42 0-42 0l0-13c0 0 31 1 38-3 7-4 14-37 20-37 0 0 0 0 1 0 1-35 6-74 20-86l-17 0 0-21 287 0 0 21-14 0c14 13 19 53 21 89 1 0 2 0 2 0 6 0 13 33 20 37 7 4 38 3 38 3l0 13c0 0-32 3-41 0z m-277-116c-3 6-6 14-9 22-1 4-2 8-2 12-2 5-2 9-2 14 0 4 0 9 0 13 0 4 0 9 0 13 1 4 1 8 2 12 0 3 1 7 2 10 2 13 7 21 7 21 0 0 0-2 0-6 0-4 0-9 1-15 1-7 1-14 2-22 1-4 1-8 2-12 0-5 1-8 1-13 1-9 2-16 4-24 1-8 2-15 2-21 2-13 2-22 2-22 0 0-6 6-12 18z m39 240c2-3 3-4 5-6l4-6c1-1 2-3 3-5 1-3 2-7 3-11 1-8 1-16 1-24-1-15-3-25-3-25 0 0 8 7 15 22 1 4 3 8 4 13 1 5 2 10 1 16 0 5 0 11-2 17-1 3-3 6-5 9 0 1-1 2-2 4l-2 2-1 0 0 1c0 0 0-1 1-1l0 0-1 1c-1 1-4 4-4 5-1 1-1 2-2 5-1 3-3 7-3 11-1 8-1 17-1 24 1 15 2 26 2 26 0 0-7-8-14-23-3-8-6-17-6-28 0-5 0-11 3-17 0-3 2-6 4-10z m21 7c0 0 0 0 0 0z m25 46c2-4 3-5 5-7l4-5c1-2 2-3 3-5 1-4 3-7 3-12 2-8 2-16 1-23-1-15-2-26-2-26 0 0 8 8 14 23 2 4 3 8 4 12 1 5 2 10 2 16 0 5-1 11-3 17-1 3-3 6-4 9-1 1-2 2-3 4l-2 2 0 1 0 0c0 0 0 0 0-1l0 1 0 0c-2 2-4 4-5 5 0 2-1 3-2 5-1 3-2 7-3 11-1 9-1 17 0 24 1 15 2 26 2 26 0 0-8-8-14-23-3-7-6-17-6-28 0-5 0-11 2-17 1-3 3-6 4-9z m22 6c0 0-1 0 0 0z m36-54c2-3 3-4 4-7l5-5c0-1 2-3 2-5 2-3 3-7 4-11 1-8 1-17 1-24-1-15-3-25-3-25 0 0 8 7 14 22 2 4 3 8 4 13 1 5 2 10 2 15 0 6 0 12-3 18-1 3-2 6-4 8-1 2-2 3-3 4l-1 2-1 1 0 1c0-1 0-1 0-1l0 0 0 0c-1 2-4 5-4 6-1 1-2 2-2 4-2 4-3 8-3 12-2 8-1 17-1 24 1 15 2 26 2 26 0 0-8-8-14-23-3-8-6-17-6-28 0-6 0-12 3-17 0-3 2-7 4-10z m21 7c0 0 0 0 0 0z"/>
<glyph glyph-name="delete" unicode="&#115;" d="M341 427l0 21c0 35-28 64-64 64l-42 0c-36 0-64-29-64-64l0-21-150 0 0-43 470 0 0 43z m-128 21c0 12 10 21 22 21l42 0c12 0 22-9 22-21l0-21-86 0z m-132-391c4-32 31-57 64-57l222 0c33 0 60 25 64 57l34 306-418 0z m260 265l43-4-21-256-43 4z m-106-2l42 0 0-256-42 0z m-64 2l21-256-43-4-21 256z"/>
<glyph glyph-name="dish" unicode="&#116;" d="M363 339l-6 18c-7 21-29 32-50 25-11-4-20-13-24-25l-6-18c-4-15-5-31-2-46 2-14 10-25 22-31l-6-137c-1-8 2-16 7-21 11-13 30-13 42-2 1 0 1 1 2 2 5 5 8 13 7 20l-6 138c12 6 20 17 22 31 3 15 2 31-2 46z m-14-44c-2-9-9-17-18-20-4-1-6-5-6-8l7-144c0-3-1-6-3-8-5-5-13-5-18 0-2 2-3 5-3 8l7 144c0 3-2 7-6 8-9 3-16 11-18 20-2 13-1 27 3 39l5 18c4 12 17 18 29 14 6-3 11-7 13-14l5-18c4-12 5-26 3-39z m-119 89c-4 0-8-4-8-9l0-73-23-23c-2-2-3-4-3-6l8-150c0-3-1-6-3-8-5-5-13-5-17 0-1 0-1 0-1 0-2 2-3 5-3 8l8 150c0 2-1 4-3 6l-23 23 0 73c0 5-4 9-8 9-5 0-9-4-9-9l0-76c0-3 1-5 3-6l22-23-7-146c-1-16 12-29 28-30 16-1 29 11 30 27 0 1 0 2 0 3l-7 146 22 23c2 1 3 3 3 6l0 76c0 5-4 9-9 9z m-51 0c-5 0-8-4-8-9l0-68c0-5 3-8 8-8 5 0 9 3 9 8l0 68c0 5-4 9-9 9z m26 0c-5 0-9-4-9-9l0-68c0-5 4-8 9-8 5 0 8 3 8 8l0 68c0 5-3 9-8 9z m51 128c-141 0-256-115-256-256 0-141 115-256 256-256 141 0 256 115 256 256 0 141-115 256-256 256z m0-495c-132 0-239 107-239 239 0 132 107 239 239 239 132 0 239-107 239-239 0-132-107-239-239-239z m28 79c-1 5-5 8-10 7 0 0 0 0 0 0l0 0c-12-1-24-1-36 0-5 1-9-2-10-7 0-5 3-9 8-10 13-1 27-1 40 0 5 1 8 5 8 10z m103 270c-3 4-9 4-12 1 0 0 0 0 0 0-4-3-5-8-2-12 52-61 48-151-9-208-3-3-3-9 0-12 4-3 9-3 12 0 63 63 68 163 11 231z m-91 56c-33 8-68 6-100-6-5-2-7-7-5-11 1-4 4-6 8-6 1 0 2 0 3 1 29 11 60 13 90 5 5-1 9 2 11 7 1 4-2 9-7 10z m-149-274c-29 28-45 67-45 108 0 32 11 64 30 90 3 4 2 9-2 12-4 3-9 2-12-1 0 0 0-1 0-1-49-67-42-161 17-220 3-4 9-4 12 0 4 3 4 8 0 12z"/>
<glyph glyph-name="done-delivered" unicode="&#117;" d="M481 180c0 16-13 30-30 30 17 0 30 13 30 30 0 16-13 30-30 30l-123 0c18 55 18 72 18 106 0 25-20 45-45 45l-9 0c-6 0-13-5-14-11-15-58-38-124-97-138l0-217 52-17c15-5 31-8 47-8l141 0c17 0 30 13 30 30 0 17-13 30-30 30l30 0c17 0 30 13 30 30 0 16-13 30-30 30 17 0 30 13 30 30z m-375 120l-60 0c-8 0-15-7-15-15l0-270c0-8 7-15 15-15l60 0c25 0 45 20 45 45l0 210c0 25-20 45-45 45z m0-240c-8 0-15 7-15 15 0 8 7 15 15 15 8 0 15-7 15-15 0-8-7-15-15-15z m131 386l-21 21c-6 6-15 6-21 0-6-6-6-15 0-21l21-21c6-6 15-6 21 0 6 6 6 15 0 21z m170 21c-6 6-15 6-21 0l-21-21c-6-6-6-15 0-21 6-6 15-6 21 0l21 21c6 6 6 15 0 21z m-106 45c-8 0-15-7-15-15l0-31c0-8 7-15 15-15 8 0 15 7 15 15l0 31c0 8-7 15-15 15z"/>
<glyph glyph-name="edit" unicode="&#118;" d="M479 479c-44 44-116 44-160 0l-293-293c-2-2-4-5-4-8l-22-161c-1-5 1-9 4-13 3-2 7-4 11-4 0 0 1 0 2 0l96 13c9 1 14 9 13 17-1 8-8 14-16 12l-78-10 15 112 118-118c3-3 7-4 10-4 4 0 8 1 11 4l293 293c21 21 33 50 33 80 0 30-12 59-33 80z m-154-36l49-49-267-268-50 49z m-149-386l-49 48 268 268 48-48z m287 289l-117 117c15 13 33 20 53 20 22 0 43-9 59-25 16-16 25-37 25-59 0-20-7-38-20-53z"/>
<glyph glyph-name="email" unicode="&#119;" d="M449 451l-386 0c-35 0-63-28-63-63l0-264c0-35 28-63 63-63l386 0c35 0 63 28 63 63l0 264c0 35-28 63-63 63z m35-327c0-19-16-34-35-34l-386 0c-19 0-34 15-34 34l0 264c0 19 15 34 34 34l386 0c19 0 34-15 34-34l0-264z m-161 135l125 113c6 5 6 14 1 20-5 6-14 6-20 1l-173-155-33 30c-1 0-1 0-1 0 0 1-1 2-2 2l-137 123c-6 5-15 5-20-1-6-6-5-15 1-20l127-114-127-118c-5-5-6-14 0-20 3-3 6-5 10-5 4 0 7 2 10 4l128 120 35-31c3-2 6-4 9-4 4 0 7 2 10 4l36 32 127-121c3-3 6-4 10-4 4 0 7 2 10 5 6 5 5 14 0 20z"/>
<glyph glyph-name="facebook" unicode="&#120;" d="M295 344l0 44c0 7 0 12 1 16 1 3 2 7 4 11 2 3 6 5 11 7 5 1 11 2 19 2l44 0 0 88-70 0c-41 0-70-10-88-29-18-19-27-48-27-86l0-53-52 0 0-88 52 0 0-255 106 0 0 255 71 0 9 88z"/>
<glyph glyph-name="fast-food" unicode="&#121;" d="M485 157l0 19c0 1 0 2 0 3 2 1 4 2 5 4 7 6 11 14 11 23 0 7-3 15-8 20 4 5 6 11 6 17 0 11-7 20-17 23 2 4 3 9 3 14l0 6c15 1 26 13 26 27 0 2 0 52-39 100-20 24-46 44-78 57-38 17-85 25-139 25-68 0-125-13-167-39-4-2-5-7-3-11 2-3 7-4 10-2 41 24 95 37 160 37 52 0 97-8 133-24 30-12 54-30 72-52 36-44 36-89 36-91 0-7-6-12-13-12l-456 0c-7 0-13 5-13 12 0 2 0 19 9 43 9 26 25 48 45 67 3 3 4 7 1 11-3 3-8 3-11 0-58-52-59-118-59-121 0-14 11-26 26-27l0-6c0-5 1-10 3-14-4-1-7-3-10-6-5-5-7-11-7-18 0-6 2-11 6-16-5-5-8-13-8-20 0-9 4-17 11-23 1-2 3-3 5-4 0-1 0-2 0-3l0-19c-15-1-26-13-26-28 0-62 50-112 112-112l288 0c62 0 112 50 112 112 0 15-11 27-26 28z m-5 37c-6-6-19-8-33-6-9 1-14 4-19 6-2 1-3 2-4 2l17 18c2 2 5 3 8 3l24 0c3 0 5 1 7 1 4-3 6-8 6-12 0-5-2-9-6-12z m-440 91l430 0 0-5c0-6-3-11-7-14 0 0 0 0-1 0 0 0 0-1-1-1 0 0 0 0 0 0 0 0-1-1-1-1 0 0 0 0 0 0-1 0-1 0-2 0 0 0 0 0 0 0 0 0-1-1-1-1 0 0-1 0-1 0 0 0 0 0-1 0 0 0 0 0 0 0-1 0-1 0-2 0l-396 0c-10 0-17 8-17 17z m-11-36c2 2 5 4 8 4l3 0c5-3 11-5 17-5l396 0c1 0 1 0 2 0 0 0 0 0 1 0 0 0 1 0 1 0 0 0 1 0 1 0 0 0 1 0 1 1 1 0 1 0 1 0 1 0 1 0 1 0 1 0 1 0 1 0 1 0 1 0 1 1 1 0 1 0 1 0 1 0 1 0 2 0 0 1 0 1 1 1 0 0 0 0 0 0 1 0 1 1 1 1 1 0 1 0 1 0 0 0 1 0 1 1l4 0c5 0 10-5 10-10 0-4-2-8-6-10l0 0c-1 0-3-1-5-1l-24 0c-7 0-14-3-19-8l-30-31c-8-7-19-8-27-2-1 0-1 0-1 0 0 0-1 1-1 1 0 0 0 0 0 0l-40 34c-5 4-11 6-17 6l-278 0c-1 0-3 1-4 1l0 0c-4 2-6 5-6 9 0 3 1 5 3 7z m-5-43c0 4 2 9 5 12 3-1 5-1 7-1l278 0c3 0 5-1 7-3l32-26c-1 0-2 0-2 0-10 0-15 2-20 6-7 4-14 8-28 8-14 0-22-4-28-8-6-4-10-6-20-6-10 0-14 2-20 6-7 4-14 8-28 8-14 0-21-4-28-8-5-4-10-6-20-6-10 0-14 2-20 6-6 4-14 8-28 8-15 0-22-4-29-8-5-2-10-5-20-6-13-2-26 0-33 6-3 3-5 7-5 12z m375-174l-288 0c-53 0-97 43-97 97 0 7 6 13 13 13l336 0c5 0 8 3 8 7 0 4-3 8-8 8l-323 0 0 16c4-1 9-1 13-1 4 0 8 0 12 1 12 2 18 5 24 8 6 3 11 6 22 6 10 0 15-3 20-6 7-4 14-8 28-8 14 0 22 4 28 8 6 3 10 6 20 6 10 0 14-3 20-6 7-4 14-8 28-8 14 0 21 4 28 8 5 3 10 6 20 6 10 0 14-3 20-6 6-4 14-8 28-8 6 0 12 1 17 3 5-3 11-4 16-4 10 0 19 4 26 11l3 2c2-1 5-2 8-4 5-3 12-6 24-8 4-1 8-1 11-1 5 0 10 0 14 1l0-16-72 0c-4 0-7-4-7-8 0-4 3-7 7-7l85 0c7 0 13-6 13-13 0-54-44-97-97-97z"/>
<glyph glyph-name="fine-dining" unicode="&#122;" d="M456 178c0 0-1 1-1 2-5 7-13 12-22 13-9 2-17 0-25-5l-95-69-100 0c-4 0-8 4-8 9 0 5 4 9 8 9l56 0c16 0 30 13 30 29 0 0 0 1 0 1-1 17-15 30-31 29l-111 0c-10 0-19-3-27-10l-42-34c-2-2-3-4-3-7l0-102c0-5 4-9 9-9l212 0c13 0 27 5 38 14l103 85c14 10 18 30 9 45z m-19-31l-104-86c-8-6-18-10-27-10l-204 0 0 90 39 32c5 4 10 6 16 6l111 0c7 0 13-5 14-13 0-7-6-12-13-12l-56 0c-14 0-25-12-25-26 0-14 11-26 25-26l103 0c2 0 3 1 5 2l97 70c4 2 8 3 12 3 5-1 8-3 11-7 0 0 0-1 1-1 4-7 2-17-5-22z m-343 15l-94 0 0-17 85 0 0-128-85 0 0-17 94 0c4 0 8 4 8 9l0 145c0 4-4 8-8 8z m-51-77c-14 0-26-11-26-25 0-14 12-26 26-26 14 0 25 12 25 26 0 14-11 25-25 25z m0-34c-5 0-9 4-9 9 0 4 4 8 9 8 4 0 8-4 8-8 0-5-4-9-8-9z m460 196l-494 0c-5 0-9-3-9-8 0-33 27-60 60-60l392 0c33 0 60 27 60 60 0 5-4 8-9 8z m-51-51l-392 0c-21 0-38 15-42 34l476 0c-4-19-21-34-42-34z m-196 273c-122 0-222-99-222-222l0-8c0-5 4-9 9-9l426 0c5 0 9 4 9 9l0 8c0 123-100 222-222 222z m-205-222c0 113 92 205 205 205 113 0 205-92 205-205z m65 125c-6-7-12-14-17-21l14-10c5 7 10 14 15 20z m140 63c-48 0-94-18-128-51l11-12c32 30 73 46 117 46z m-26 77l52 0 0-17-52 0z m17-9l18 0 0-42-18 0z"/>
<glyph glyph-name="instagram" unicode="&#65;" d="M511 362c-1 27-5 45-12 62-6 17-16 32-29 45-13 13-28 23-45 30-17 6-35 10-63 11-27 2-36 2-105 2-70 0-78 0-106-2-27-1-46-5-62-11-17-7-32-17-45-30-13-13-23-28-30-45-6-17-10-35-11-62-2-28-2-36-2-106 0-69 0-78 1-105 2-28 6-46 12-63 7-17 17-32 30-45 13-13 28-23 45-29 16-7 35-11 62-12 28-2 36-2 106-2 69 0 78 0 105 2 27 1 46 5 62 12 35 13 62 40 75 74 7 17 11 35 12 63 1 27 2 36 2 105 0 70-1 78-2 106z m-46-209c-1-25-5-39-9-48-8-22-26-40-48-49-9-3-23-7-48-8-27-2-35-2-103-2-68 0-77 0-103 2-25 1-39 5-48 8-11 5-21 11-29 20-9 8-15 18-19 29-4 9-8 23-9 47-1 27-2 36-2 104 0 68 1 76 2 103 1 25 5 39 9 48 4 11 10 21 19 29 8 9 18 15 29 19 9 4 23 8 48 9 27 1 35 2 103 2 68 0 77-1 103-2 25-1 39-5 48-9 11-4 21-10 29-19 9-8 15-18 19-29 4-9 8-23 9-48 1-27 2-35 2-103 0-68-1-76-2-103z m-208 235c-73 0-132-59-132-132 0-73 59-131 132-131 72 0 131 58 131 131 0 73-59 132-131 132z m0-217c-47 0-85 38-85 85 0 47 38 85 85 85 47 0 85-38 85-85 0-47-38-85-85-85z m167 222c0-17-14-31-30-31-17 0-31 14-31 31 0 17 14 30 31 30 16 0 30-13 30-30z"/>
<glyph glyph-name="left-arrow" unicode="&#66;" d="M166 256l222 222c8 8 8 21 0 28-8 8-20 8-28 0l-236-236c-8-8-8-20 0-28l236-236c8-8 21-8 28 0 8 8 8 20 0 27z"/>
<glyph glyph-name="linkedin" unicode="&#67;" d="M512 0l0 0 0 0 0 188c0 92-20 162-127 162-52 0-86-28-101-55l-1 0 0 47-102 0 0-342 106 0 0 169c0 45 9 88 64 88 54 0 55-51 55-91l0-166z m-504 342l107 0 0-342-107 0z m53 170c-33 0-61-28-61-61 0-34 28-63 61-63 34 0 62 29 62 63 0 33-28 61-62 61z"/>
<glyph glyph-name="location" unicode="&#68;" d="M255 512c-103 0-188-84-188-188 0-27 6-53 17-77 47-102 137-211 163-242 2-2 5-3 8-3 3 0 6 1 8 3 27 31 117 140 164 242 11 24 16 50 16 77 0 104-84 188-188 188z m0-286c-54 0-97 44-97 98 0 54 43 98 97 98 54 0 98-44 98-98 0-54-44-98-98-98z"/>
<glyph glyph-name="logout" unicode="&#69;" d="M256 0c-117 0-212 95-212 212 0 95 64 179 156 204 9 3 19-3 21-12 3-10-3-19-12-22-76-21-130-91-130-170 0-97 80-177 177-177 97 0 176 80 176 177 0 77-51 147-125 169-10 3-15 13-12 22 3 9 12 15 22 12 89-27 151-110 151-203 0-117-95-212-212-212z m0 282c-10 0-18 8-18 18l0 194c0 10 8 18 18 18 10 0 18-8 18-18l0-194c0-10-8-18-18-18z"/>
<glyph glyph-name="money" unicode="&#70;" d="M496 411l-430 0c-9 0-16-7-16-16l0-37-34 0c-9 0-16-7-16-16l0-225c0-9 7-16 16-16l430 0c9 0 16 7 16 16l0 37 34 0c9 0 16 7 16 16l0 225c0 9-7 16-16 16z m-147-86c7-41 39-73 81-80l0-31c-42-7-74-39-81-81l-236 0c-7 42-39 74-81 81l0 31c42 7 74 39 81 80z m81-47c-24 6-42 24-48 47l48 0z m-398 47l48 0c-6-23-24-41-48-47z m0-192l0 48c24-6 42-24 48-48z m398 0l-48 0c6 24 24 42 48 48z m50 54l-18 0c0 82 0-3 0 155 0 9-7 16-16 16-38 0-329 0-364 0l0 21 398 0z m-249-16c32 0 58 26 58 58 0 33-26 59-58 59-32 0-58-26-58-59 0-32 26-58 58-58z m-18 77c10 10 26 10 36 0 10-10 10-27 0-37-10-10-26-10-36 0-10 10-10 27 0 37z"/>
<glyph glyph-name="more" unicode="&#71;" d="M61 317c-34 0-61-27-61-61 0-34 27-61 61-61 34 0 61 27 61 61 0 34-27 61-61 61z m195 0c-34 0-61-27-61-61 0-34 27-61 61-61 34 0 61 27 61 61 0 34-27 61-61 61z m195 0c-34 0-61-27-61-61 0-34 27-61 61-61 34 0 61 27 61 61 0 34-27 61-61 61z"/>
<glyph glyph-name="out-delivery" unicode="&#72;" d="M30 277l177 0c1 0 1 0 1 1 0 18-15 33-34 33l-144 0c-9 0-17-8-17-17 0-10 8-17 17-17z m60-89c-22 0-42-9-57-24-13-14-21-34-22-54 0-4 2-7 6-7l157 0c0 48-37 85-84 85z m321 61l-15 72c-3-1-6-1-9-1l-59 0c-8-12-13-26-13-42l0-91c0-9-7-17-17-17l-64 0c-8 0-14 5-16 12l-19 63-150 0c-25-16-43-42-49-72 20 29 52 47 90 47 65 0 116-51 116-117 0 0 0 0 0 0l144 0c4 31 24 58 50 73z m-182 139c0-9 7-16 16-16l36 0 0 32-36 0c-9 0-16-7-16-16z m194-1c1 20-16 37-36 37l-67 0c-3 0-7-3-7-7l0-58c0-4 4-7 7-7l67 0c20 0 36 16 36 35z m81-218c1-1 2-1 3-1 2 0 4 2 4 4-2 36-32 62-68 62l-2 0-7-47c4 0 8 1 13 1 21 0 41-8 57-19z m-412-144c29 0 55 20 62 47l-125 0c8-27 33-47 63-47z m-54 364l143 0c9 0 16 8 16 16 0 9-7 16-16 16l-143 0c-9 0-16-7-16-16 0-8 7-16 16-16z m53 66l145 0c8 0 16 7 16 16 0 9-8 16-16 16l-145 0c-9 0-16-7-16-16 0-9 7-16 16-16z m356-300c-7 0-13 0-18-2 0 0-10-3-19-9-17-12-29-31-29-54 0-36 30-65 66-65 36 0 65 29 65 65 0 36-29 65-65 65z m0-81c-9 0-16 7-16 16 0 9 7 16 16 16 9 0 16-7 16-16 0-9-7-16-16-16z"/>
<glyph glyph-name="password" unicode="&#73;" d="M369 337l0 62c0 62-51 113-113 113-62 0-113-51-113-113l0-62c-32-6-56-34-56-68l0-200c0-38 31-69 69-69l200 0c38 0 69 31 69 69l0 200c0 34-24 62-56 68z m-113 143c45 0 81-37 81-81l0-61-162 0 0 61c0 44 36 81 81 81z m137-411c0-20-17-37-37-37l-200 0c-20 0-37 17-37 37l0 200c0 20 17 37 37 37l200 0c20 0 37-17 37-37z m-162 143c-18-17-13-46 9-57l0-21c0-9 7-16 16-16 9 0 16 7 16 16l0 21c22 11 27 40 9 57-14 14-36 14-50 0z"/>
<glyph glyph-name="photo" unicode="&#74;" d="M228 336c0-20-16-36-35-36-19 0-35 16-35 36 0 19 16 35 35 35 19 0 35-16 35-35z m254-130c-17 16-38 26-61 29l0 179c0 19-8 36-20 49-13 12-30 20-49 20l-283 0c-19 0-36-8-49-20-13-13-20-30-20-49l0-292c0-19 8-36 20-49 13-12 30-20 49-20l274 0c18-14 41-24 65-24 29 0 55 12 74 31 18 18 30 44 30 73 0 29-12 55-30 73z m-456 208c0 12 5 22 13 30 7 7 18 12 30 12l283 0c12 0 23-5 31-12 7-8 12-19 12-31l0-152-72 72c-5 5-13 6-19 0l-109-109-73 74c-5 5-14 5-19 0l-77-78z m42-336l0 1c-11 0-22 5-30 13-7 8-12 18-12 30l0 61 86 87 74-74c5-5 13-5 19 0l109 109 71-71c-1-1-3-1-4-2-2 0-4-1-7-2-2 0-4-1-6-2-1 0-2-1-4-2-1-1-3-1-4-2-3-2-5-3-8-5-1-1-2-1-4-2-1-1-1-1-2-2-5-2-8-6-12-10-18-18-30-44-30-73 0-7 1-14 2-22 1-2 1-3 2-5 1-5 3-10 5-15l0 0c2-4 4-8 6-12z m395 0c-15-14-34-22-55-22-21 0-40 8-53 21-2 2-4 5-6 7-2 1-3 3-5 4-2 3-3 6-4 9-1 2-2 3-3 5-1 3-2 5-3 8 0 2-1 5-2 7-1 5-1 10-1 15 0 22 9 41 22 55 14 14 33 23 55 23 21 0 40-9 55-23 14-14 22-33 22-55 0-21-9-40-22-54z m-46 107c-1 1-2 2-4 3-2 1-3 1-5 1 0 0 0 0 0 0-1 0-1 0-1 0-1 0-2 0-4-1-1 0-3-1-4-3l-31-30c-5-5-5-13 0-19 5-5 14-5 19 0l8 8 0-54c0-7 6-13 13-13 7 0 13 6 13 13l0 54 8-8c5-5 13-5 19 0 4 5 4 13 0 19z"/>
<glyph glyph-name="play" unicode="&#75;" d="M346 290l-121 87c-12 9-27 12-39 5-12-5-19-19-19-34l0-184c0-16 7-27 19-34 5-2 10-4 15-4 9 0 17 4 24 11l121 87c12 8 19 20 19 34 0 12-7 24-19 32z m-20-41l-121-87c-2 0-4-2-4-2 0 0 0 2 0 4l0 184c0 2 0 4 0 4 2 0 2-2 6-4l121-87c1 0 3-3 3-5 0-2-2-5-5-7z m-70 263c-142 0-256-114-256-256 0-142 114-256 256-256 142 0 256 114 256 256 0 142-114 256-256 256z m0-478c-123 0-222 99-222 222 0 123 99 222 222 222 123 0 222-99 222-222 0-123-99-222-222-222z"/>
<glyph glyph-name="received" unicode="&#76;" d="M115 512l189-141 190 141z m198-172c-3-2-6-3-9-3-3 0-6 1-9 3l-199 148 0-150c20 7 41 11 64 11 93 0 171-67 186-156l151 0c8 0 15 7 15 15l0 280z m-153-21c-88 0-160-71-160-159 0-88 72-160 160-160 88 0 159 72 159 160 0 88-71 159-159 159z m58-170l-48-48c-3-3-6-5-10-5-4 0-8 2-11 5l-48 48c-6 6-6 15 0 21 6 6 15 6 21 0l23-22 0 60c0 8 6 15 15 15 8 0 15-7 15-15l0-60 22 22c6 6 16 6 21 0 6-6 6-15 0-21z"/>
<glyph glyph-name="rejected" unicode="&#77;" d="M256 512c-141 0-256-115-256-256 0-141 115-256 256-256 141 0 256 115 256 256 0 141-115 256-256 256z m-192-256c0 41 13 80 36 111l267-267c-31-23-70-36-111-36-106 0-192 86-192 192z m348-111l-267 267c31 23 70 36 111 36 106 0 192-86 192-192 0-41-13-80-36-111z"/>
<glyph glyph-name="reports" unicode="&#78;" d="M50 246c-6 0-10-4-10-10 0-6 4-10 10-10 6 0 10 4 10 10 0 6-4 10-10 10z m412 0l-216 0 0 216c0 6-4 10-10 10-31 0-61-6-91-19-27-12-53-29-75-51-22-22-39-48-51-75-13-30-19-60-19-91 0-31 6-61 19-91 12-27 29-53 51-75 22-22 48-39 75-51 30-13 60-19 91-19 13 0 27 1 40 3 53 10 102 38 138 81 38 44 58 98 58 152 0 6-4 10-10 10z m-189-223c-12-2-25-3-37-3-115 0-216 101-216 216 0 112 95 210 206 216l0-216c0-6 4-10 10-10l216 0c-5-98-82-186-179-203z m180 430c-37 38-87 59-137 59-7 0-14 0-21-1-5-1-9-5-9-10l0-205c0-6 4-10 10-10l205 0c5 0 9 4 10 9 1 7 1 14 1 21 0 50-21 100-59 137z m39-147l-186 0 0 186c3 0 7 0 10 0 94 0 176-82 176-176 0-3 0-7 0-10z m-256-246c-79 0-154 61-172 139-1 5-6 8-12 7-5-1-9-6-7-12 9-41 33-80 69-109 35-29 79-45 122-45 6 0 10 4 10 10 0 6-4 10-10 10z"/>
<glyph glyph-name="right" unicode="&#79;" d="M256 512c-141 0-256-115-256-256 0-141 115-256 256-256 141 0 256 115 256 256 0 141-115 256-256 256z m146-183l-184-184c-4-4-10-6-15-6-6 0-11 2-15 6l-100 99c-4 4-4 11 0 15l16 15c4 4 10 4 15 0l84-84 169 170c4 4 11 4 15 0l15-16c4-4 4-10 0-15z"/>
<glyph glyph-name="right-arrow" unicode="&#80;" d="M299 412c-6 6-16 5-23-1-6-6-5-16 1-23l123-116-320 0c-9 0-16-7-16-16 0-9 7-16 16-16l319 0-122-116c-6-7-7-17-1-23 4-3 8-5 12-5 4 0 8 1 11 4l140 133c6 6 9 14 9 23 0 9-3 17-10 23z"/>
<glyph glyph-name="search" unicode="&#81;" d="M506 36l-146 146c28 35 45 79 45 127 0 112-91 203-202 203-112 0-203-91-203-203 0-111 91-202 203-202 48 0 92 17 127 45l146-146c4-4 9-6 15-6 5 0 11 2 15 6 8 9 8 22 0 30z m-303 113c-89 0-160 72-160 160 0 89 71 160 160 160 88 0 160-71 160-160 0-88-72-160-160-160z"/>
<glyph glyph-name="setting" unicode="&#82;" d="M256 378c-67 0-122-55-122-122 0-67 55-122 122-122 67 0 122 55 122 122 0 67-55 122-122 122z m0-214c-51 0-92 41-92 92 0 51 41 92 92 92 51 0 92-41 92-92 0-51-41-92-92-92z m244 150l-39 9c-4 10-8 21-13 30l22 34c4 6 3 14-2 19l-62 62c-5 5-13 6-19 2l-34-22c-9 5-20 9-30 13l-9 39c-1 7-7 12-15 12l-86 0c-8 0-14-5-15-12l-9-39c-10-4-21-8-30-13l-34 22c-6 4-14 3-19-2l-62-62c-5-5-6-13-2-19l22-34c-5-9-9-20-13-30l-39-9c-7-1-12-7-12-15l0-86c0-8 5-14 12-15l39-9c4-10 8-21 13-30l-22-34c-4-6-3-14 2-19l62-62c5-5 13-6 19-2l34 22c9-5 20-9 30-13l9-39c1-7 7-12 15-12l86 0c8 0 14 5 15 12l9 39c10 4 21 8 30 13l34-22c6-4 14-3 19 2l62 62c5 5 6 13 2 19l-22 34c5 9 9 20 13 30l39 9c7 1 12 7 12 15l0 86c0 8-5 14-12 15z m-19-89l-36-8c-5-1-10-5-11-11-4-14-10-28-17-41-3-5-3-11 0-15l20-31-44-44-31 20c-4 3-10 3-15 0-13-7-27-13-41-17-6-1-10-6-11-11l-8-36-62 0-8 36c-1 5-5 10-11 11-14 4-28 10-41 17-5 3-11 3-15 0l-31-20-44 44 20 31c3 4 3 10 0 15-7 13-13 27-17 41-1 6-6 10-11 11l-36 8 0 62 36 8c5 1 10 5 11 11 4 14 10 28 17 41 3 5 3 11 0 15l-20 31 44 44 31-20c4-3 10-3 15 0 13 7 27 13 41 17 6 1 10 6 11 11l8 36 62 0 8-36c1-5 5-10 11-11 14-4 28-10 41-17 5-3 11-3 15 0l31 20 44-44-20-31c-3-4-3-10 0-15 7-13 13-27 17-41 1-6 6-10 11-11l36-8z"/>
<glyph glyph-name="shop" unicode="&#83;" d="M364 236l-70 0c-19 0-34-15-34-34l0-54c0-19 15-34 34-34l70 0c19 0 34 15 34 34l0 54c0 19-15 34-34 34z m9-88c0-5-4-9-9-9l-70 0c-5 0-9 4-9 9l0 54c0 5 4 9 9 9l70 0c5 0 9-4 9-9z m139 185c0 2-1 4-2 6l-76 134c-2 4-6 7-11 7l-334 0c-5 0-9-3-11-7l-76-134c-1-2-2-4-2-6 0-30 18-56 44-67l0-221c0-7 6-13 12-13l70 0c0 0 0 0 0 0l97 0c1 0 1 0 1 0l231 0c7 0 13 6 13 13l0 219c0 1 0 1 0 2 26 11 44 37 44 67z m-416 121l320 0 59-104-438 0z m268-129c-4-23-23-40-47-40-24 0-44 17-48 40z m-121 0c-4-23-24-40-48-40-24 0-43 17-47 40z m-217 0l95 0c-4-23-24-40-48-40-23 0-43 17-47 40z m185-267l-72 0 0 135c0 10 8 18 18 18l36 0c10 0 18-8 18-18l0-135z m232 0l-207 0 0 135c0 24-19 43-43 43l-36 0c-24 0-43-19-43-43l0-136-45 0 0 203c2 0 3 0 4 0 26 0 48 12 61 32 14-20 36-32 61-32 26 0 48 12 61 32 13-20 36-32 61-32 25 0 47 12 61 32 13-20 35-32 61-32 1 0 2 0 4 0z m-4 227c-24 0-44 17-48 39l95 0c-4-22-24-39-47-39z"/>
<glyph glyph-name="shopping-cart" unicode="&#84;" d="M508 396c-4 4-10 7-16 7l-362 0-2 14 0 0c-7 54-53 95-108 95-11 0-20-9-20-20 0-11 9-20 20-20 35 0 64-26 69-60l23-218c-21-10-35-31-35-55 0 0 0 0 0-1 0 0 0 0 0 0 0-33 27-60 60-60l8 0c-2-6-3-12-3-19 0-33 26-59 59-59 33 0 59 26 59 59 0 7-1 13-3 19l86 0c-2-6-3-12-3-19 0-33 26-59 59-59 33 0 59 26 59 59 0 33-26 59-59 59l-262 0c-11 0-20 9-20 20 0 0 0 0 0 0 0 1 0 1 0 1 0 11 9 20 20 20l255 0c36 0 68 22 83 56 5 10 0 22-10 26-10 5-22 0-26-10-9-19-27-32-47-32l-240 0-18 164 333 0-9-47c-3-11 4-21 15-24 1 0 3 0 4 0 9 0 18 6 20 16l15 71c1 6-1 12-4 17z m-109-318c10 0 19-9 19-19 0-10-9-19-19-19-10 0-19 9-19 19 0 10 9 19 19 19z m-198 0c10 0 19-9 19-19 0-10-9-19-19-19-10 0-19 9-19 19 0 10 9 19 19 19z"/>
<glyph glyph-name="team" unicode="&#85;" d="M443 275c15 11 25 29 25 48 0 33-26 59-59 59-32 0-58-26-58-59 0-19 10-37 25-48-13-4-25-11-35-20-13 12-30 21-47 26 21 13 36 37 36 63 0 41-34 75-75 75-40 0-74-34-74-75 0-26 15-50 36-63-17-5-33-14-47-25-10 8-21 15-34 19 15 11 25 28 25 48 0 33-26 59-58 59-33 0-59-26-59-59 0-20 10-37 25-48-40-13-69-52-69-97l0-6c0 0 0-1 0-1l124 0c0-5-1-11-1-17l0-7c0-29 24-54 54-54l157 0c30 0 54 25 54 54l0 7c0 6 0 12-1 17l125 0c0 0 0 1 0 1l0 6c0 45-29 84-69 97z m-76 48c0 24 19 43 42 43 24 0 43-19 43-43 0-23-19-41-42-42 0 0 0 0-1 0 0 0 0 0-1 0-23 1-41 19-41 42z m-170 21c0 32 26 58 58 58 32 0 58-26 58-58 0-30-24-56-54-57-1 0-3 0-4 0-1 0-2 0-3 0-30 1-55 27-55 57z m-137-21c0 24 19 43 42 43 24 0 43-19 43-43 0-23-19-41-42-42 0 0 0 0-1 0 0 0 0 0 0 0-23 1-42 19-42 42z m67-135l-111 0c5 43 41 77 86 77 0 0 0 0 0 0 1 0 1 0 1 0 21 0 40-8 55-21-14-15-25-35-31-56z m245-41c0-20-17-37-38-37l-157 0c-21 0-38 17-38 37l0 7c0 63 50 115 113 116 1 0 2 0 3 0 2 0 3 0 4 0 62-1 113-53 113-116z m12 41c-6 21-17 40-31 56 15 13 34 21 56 21 0 0 0 0 0 0 0 0 1 0 1 0 44 0 81-34 85-77z"/>
<glyph glyph-name="twitter" unicode="&#86;" d="M512 415c-19-9-39-14-60-17 21 13 38 34 46 58-21-12-43-20-67-25-19 20-47 33-77 33-58 0-104-47-104-105 0-8 0-16 2-24-87 4-164 46-216 110-9-16-15-34-15-53 0-37 19-69 47-87-17 0-34 5-48 13 0-1 0-1 0-2 0-51 37-93 85-103-9-2-18-3-28-3-7 0-13 0-20 2 14-42 52-73 98-74-35-28-81-44-130-44-8 0-17 0-25 1 46-30 102-47 161-47 193 0 299 160 299 299 0 4 0 9-1 13 21 15 39 34 53 55z"/>
<glyph glyph-name="up-and-down" unicode="&#87;" d="M410 290c-9 0-18 4-25 10l-129 130-129-130c-14-13-35-13-49 0-13 13-13 35 0 48l154 154c13 13 35 13 48 0l154-154c13-13 13-35 0-48-7-6-15-10-24-10z m-154 160c2 0 4-1 6-2l136-136c6-6 17-6 24 0 6 7 6 18 0 24l-154 154c-7 7-17 7-24 0l-154-154c-6-6-6-17 0-24 7-6 18-6 24 0l136 136c2 1 4 2 6 2z m0-450c-9 0-18 4-24 10l-154 154c-13 13-13 35 0 48 14 13 35 13 49 0l129-130 129 130c14 13 35 13 49 0 13-13 13-35 0-48l-154-154c-6-6-15-10-24-10z m-12 22c7-7 17-7 24 0 0 0 0 0 0 0l154 154c6 6 6 17 0 24-7 6-18 6-24 0l-136-136c-3-3-9-3-12 0l-136 136c-6 6-17 6-24 0-6-7-6-18 0-24l154-154z"/>
<glyph glyph-name="view" unicode="&#88;" d="M510 262c-4 6-101 143-254 143-131 0-249-136-253-142-4-4-4-10 0-14 4-6 122-142 253-142 131 0 249 136 253 142 4 4 4 9 1 13z m-254-134c-105 0-206 100-231 128 25 28 125 128 231 128 123 0 210-100 232-127-25-27-126-129-232-129z m0 213c-47 0-85-38-85-85 0-47 38-85 85-85 47 0 85 38 85 85 0 47-38 85-85 85z m0-149c-35 0-64 29-64 64 0 35 29 64 64 64 35 0 64-29 64-64 0-35-29-64-64-64z"/>
<glyph glyph-name="socialicon" unicode="&#89;" d="M256 366c-58 0-106-48-106-106 0-58 48-105 106-105 58 0 106 47 106 105 0 58-48 106-106 106z m0-195c-18 0-34 5-48 14 3 24 23 43 48 43 25 0 45-19 48-43-14-9-30-14-48-14z m-24 97c0 14 11 25 24 25 14 0 24-11 24-25 0-13-10-24-24-24-13 0-24 11-24 24z m87-72c-6 19-19 34-36 42 8 7 14 18 14 30 0 23-18 41-41 41-22 0-40-18-40-41 0-12 5-23 13-30-17-8-30-23-35-42-17 17-27 39-27 64 0 49 40 90 89 90 50 0 90-41 90-90 0-25-11-47-27-64z m-55-132l0 50-16 0 0-50c-14-4-24-16-24-31 0-18 14-33 32-33 18 0 33 15 33 33 0 15-11 27-25 31z m-8-48c-9 0-16 8-16 17 0 9 7 16 16 16 9 0 16-8 16-16 0-9-7-17-16-17z m224 273c-16 0-28-11-32-25l-46 0c-1 35-14 67-35 91l31 31c5-3 10-4 16-4 9 0 17 3 23 9 6 6 10 14 10 23 0 9-4 17-10 23-12 12-34 12-46 0-6-6-9-14-9-23 0-6 1-11 4-16l-30-31c-25 23-56 37-92 39l0 42c14 4 25 16 25 31 0 18-15 33-33 33-18 0-32-15-32-33 0-15 10-27 24-31l0-42c-35-2-67-16-91-39l-31 31c3 5 5 10 5 16 0 9-4 17-10 23-12 12-34 12-46 0-6-6-9-14-9-23 0-9 3-17 9-23 6-6 14-9 23-9 6 0 12 1 16 4l31-31c-21-24-34-56-35-91l-46 0c-4 14-16 25-31 25-18 0-33-15-33-33 0-18 15-33 33-33 15 0 27 11 31 25l46 0c3-34 17-64 39-87l-35-35c-4 3-10 5-16 5-9 0-17-4-23-10-6-6-9-14-9-23 0-9 3-17 9-23 6-6 14-9 23-9 9 0 17 3 23 9 6 6 10 14 10 23 0 6-2 12-5 16l35 35c25-22 59-35 95-35 36 0 70 13 95 35l35-35c-3-4-5-10-5-16 0-9 4-17 10-23 6-6 14-9 23-9 9 0 17 3 23 9 6 6 9 14 9 23 0 9-3 17-9 23-6 6-14 10-23 10-6 0-12-2-16-5l-35 35c22 23 36 53 39 87l46 0c4-14 16-25 31-25 18 0 33 15 33 33 0 18-15 33-32 33z m-77 137c3 3 7 4 11 4 4 0 9-1 12-4 3-4 4-8 4-12 0-4-1-8-4-11-7-7-17-7-23 0-3 3-5 7-5 11 0 4 2 8 5 12z m-293-23c-7-7-17-7-23 0-3 3-5 7-5 11 0 4 2 8 5 12 3 3 7 4 11 4 4 0 9-1 12-4 3-4 4-8 4-12 0-4-1-8-4-11z m-77-163c-9 0-17 7-17 16 0 9 8 16 17 16 9 0 16-7 16-16 0-9-7-16-16-16z m77-154c-7-6-17-6-23 0-3 3-5 8-5 12 0 4 2 8 5 11 3 3 7 5 11 5 4 0 9-2 12-5 3-3 4-7 4-11 0-4-1-9-4-12z m293 23c3 3 7 5 11 5 4 0 9-1 12-5 3-3 4-7 4-11 0-4-1-9-4-12-7-6-17-6-23 0-3 3-5 8-5 12 0 4 2 8 5 11z m-163 370c0 9 7 17 16 17 9 0 16-8 16-17 0-9-7-16-16-16-9 0-16 8-16 16z m16-349c-72 0-130 58-130 130 0 72 58 130 130 130 72 0 130-58 130-130 0-72-58-130-130-130z m224 110c-9 0-17 7-17 16 0 9 8 16 17 16 9 0 16-7 16-16 0-9-7-16-16-16z"/>
<glyph glyph-name="file" unicode="&#90;" d="M330 509c-3 3-6 4-9 4l-200 0c-37 0-67-30-67-67l0-378c0-37 30-67 67-67l271 0c37 0 67 30 67 67l0 300c0 3-1 6-3 9z m3-40l85-88-55 0c-16 0-30 13-30 29z m59-443l-271 0c-23 0-42 19-42 42l0 378c0 23 19 42 42 42l188 0 0-78c0-30 24-54 54-54l72 0 0-288c0-23-20-42-43-42z m-34 85l-203 0c-7 0-12-5-12-12 0-7 5-13 12-13l204 0c6 0 12 6 12 13 0 7-6 12-13 12z m-165 133l51 55 0-135c0-7 6-12 13-12 7 0 12 5 12 12l0 135 51-55c2-2 6-4 9-4 3 0 6 1 8 4 5 4 6 12 1 17l-72 78c-3 2-6 4-9 4-4 0-7-2-9-4l-73-78c-5-5-4-13 1-17 5-5 13-5 17 0z"/>
<glyph glyph-name="web-page" unicode="&#48;" d="M156 288l-53 0c-9 0-16 7-16 16 0 9 7 16 16 16l53 0c9 0 16-7 16-16 0-9-7-16-16-16z m256 0l-160 0c-9 0-16 7-16 16 0 9 7 16 16 16l160 0c9 0 16-7 16-16 0-9-7-16-16-16z m-256-85l-53 0c-9 0-16 7-16 16 0 8 7 16 16 16l53 0c9 0 16-8 16-16 0-9-7-16-16-16z m256 0l-160 0c-9 0-16 7-16 16 0 8 7 16 16 16l160 0c9 0 16-8 16-16 0-9-7-16-16-16z m-256-86l-53 0c-9 0-16 7-16 16 0 9 7 16 16 16l53 0c9 0 16-7 16-16 0-9-7-16-16-16z m256 0l-160 0c-9 0-16 7-16 16 0 9 7 16 16 16l160 0c9 0 16-7 16-16 0-9-7-16-16-16z m41-96l-394 0c-33 0-59 27-59 59l0 352c0 32 26 59 59 59l394 0c33 0 59-27 59-59l0-352c0-32-26-59-59-59z m-394 438c-15 0-27-12-27-27l0-352c0-15 12-27 27-27l394 0c15 0 27 12 27 27l0 352c0 15-12 27-27 27z m437-75l-480 0c-9 0-16 7-16 16 0 9 7 16 16 16l480 0c9 0 16-7 16-16 0-9-7-16-16-16z"/>
<glyph glyph-name="calendar" unicode="&#49;" d="M492 420c-3 13-10 25-20 34-15 15-36 24-58 24l-35 0 0 23c0 6-4 11-11 11-5 0-10-4-10-11l0-23-203 0 0 23c0 6-4 11-10 11-6 0-11-4-11-11l0-23-35 0c-17 0-33-5-46-14-5-2-9-6-12-10-16-15-24-35-24-58l0-314c0-23 9-43 24-58 15-15 35-24 58-24l314 0c23 0 44 10 58 24 16 15 24 36 24 58l0 313c0 8-1 17-3 25z m-17-338c0-18-6-33-18-45-11-11-26-17-43-17l-315 0c-16 0-32 6-43 17-12 12-18 27-18 44l0 248 437 0z m1 268l-438 0 0 46c0 16 6 32 18 43 11 11 27 18 43 18l35 0 0-23c0-5 4-10 11-10 5 0 10 4 10 10l0 23 203 0 0-23c0-5 5-10 11-10 6 0 11 4 11 10l0 23 34 0c17 0 33-7 44-18 8-8 15-19 17-31 0-4 1-8 1-12z m-357-116c9 0 18 4 24 9 6 7 9 15 9 24 0 9-3 17-9 23-6 6-15 10-24 10-8 0-17-4-23-10-6-6-10-14-10-23 0-9 4-17 10-24 6-6 15-9 23-9z m-9 42c2 2 5 3 9 3 3 0 7-1 9-3 2-2 3-5 3-9 1-4-1-7-3-9-2-2-5-3-9-3-3 0-7 1-9 3-2 2-3 5-3 9 0 3 1 7 3 9z m101-42c9 0 17 4 23 9 6 7 10 15 10 24 0 9-4 17-10 23-5 7-14 10-23 10-9 0-18-4-24-10-6-6-9-14-9-23 0-9 4-17 9-24 6-6 15-9 24-9z m-9 42c2 2 5 3 9 3 3 0 6-1 9-3 2-2 3-5 3-9 0-4-1-7-3-9-3-2-5-3-9-3-4 0-7 1-9 3-3 2-4 5-4 9 0 3 1 7 4 9z m100-42c9 0 18 4 24 9 6 7 9 15 9 24 0 9-3 17-9 23-6 7-15 10-24 10-9 0-17-4-23-10-6-5-10-14-10-23 0-9 4-17 10-24 6-6 14-9 23-9z m-9 41c3 3 6 4 9 4 4 0 7-1 9-4 3-2 4-5 4-9 0-3-2-6-4-8-2-2-5-3-9-3-3 0-7 1-9 3-2 2-3 5-3 8 0 4 1 7 3 9z m101-41c9 0 17 4 23 9 6 7 10 15 10 24 0 9-4 17-10 23-5 6-14 10-23 10-9 0-18-4-24-10-6-6-9-14-9-23 0-9 4-17 9-24 6-6 15-9 24-9z m-9 42c2 2 5 3 9 3 3 0 6-1 9-3 2-2 3-5 3-9 0-4-1-7-3-9-3-2-5-3-9-3-4 0-7 1-9 3-3 2-4 5-4 9 0 3 1 7 4 9z m-266-134c9 0 18 4 24 10 6 6 9 14 9 23 0 9-3 17-9 24-6 6-15 9-24 9-8 0-17-4-23-9-6-7-10-15-10-24 0-9 4-17 10-23 6-7 15-10 23-10z m-9 42c2 2 5 3 9 3 3 0 7-1 9-3 2-2 3-5 3-9 1-3-1-7-3-9-2-2-5-3-9-3-3 0-7 1-9 3-2 2-3 5-3 9 0 3 1 7 3 9z m101-42c9 0 17 4 23 10 6 5 10 14 10 23 0 9-4 17-10 24-5 6-14 9-23 9-9 0-18-4-24-9-6-7-9-15-9-24 0-9 4-17 9-23 6-7 15-10 24-10z m-9 42c2 2 5 3 9 3 3 0 6-1 9-3 2-2 3-5 3-9 0-3-1-7-3-9-3-2-5-3-9-3-4 0-7 1-9 3-3 2-4 5-4 9 0 3 1 7 4 9z m100-42c9 0 18 4 24 10 6 5 9 14 9 23 0 9-3 17-9 24-6 6-15 9-24 9-9 0-17-4-23-9-6-6-10-15-10-24 0-9 4-17 10-23 6-7 14-10 23-10z m-9 42c2 2 5 3 9 3 3 0 7-1 9-3 2-2 3-5 3-9 1-3-1-7-3-9-2-2-5-3-9-3-3 0-7 1-9 3-2 2-3 5-3 9 0 3 1 7 3 9z m101-42c9 0 17 4 23 10 6 6 10 14 10 23 0 9-4 17-10 24-5 6-14 9-23 9-9 0-18-4-24-9-6-7-9-15-9-24 0-9 4-17 9-23 6-7 15-10 24-10z m-9 42c2 2 5 3 9 3 3 0 6-1 9-3 2-2 3-5 3-9 0-3-1-7-3-9-3-2-5-3-9-3-4 0-7 1-9 3-3 2-4 5-4 9 0 3 1 7 4 9z m-266-133c9 0 18 4 24 10 6 6 9 15 9 23 0 9-3 18-9 24-6 6-15 10-24 10-8 0-17-4-23-10-6-6-10-15-10-24 0-8 4-17 10-23 6-6 15-10 23-10z m-9 42c2 3 5 4 9 4 3 0 7-1 9-4 2-2 3-5 3-9 1-3-1-6-3-8-2-3-5-4-9-4-3 0-7 1-9 4-2 2-3 5-3 8 0 4 1 7 3 9z m101-42c9 0 17 4 23 10 6 6 10 15 10 23 0 9-4 18-10 24-5 6-14 10-23 10-9 0-18-4-24-10-6-6-9-15-9-24 0-8 4-17 9-23 6-6 15-10 24-10z m-9 42c2 3 5 4 9 4 3 0 6-1 9-4 2-2 3-5 3-9 0-3-1-6-3-8-3-3-5-4-9-4-4 0-7 1-9 4-3 2-4 5-4 8 0 4 1 7 4 9z m100-42c9 0 18 4 24 10 6 6 9 15 9 23 0 9-3 18-9 24-6 6-15 10-24 10-9 0-17-4-23-10-6-6-10-15-10-24 0-8 4-17 10-23 6-6 14-10 23-10z m-9 42c2 3 5 4 9 4 3 0 7-1 9-4 2-2 3-5 3-9 1-3-1-6-3-8-2-3-5-4-9-4-3 0-7 1-9 4-2 2-3 5-3 8 0 4 1 7 3 9z m101-42c9 0 17 4 23 10 6 6 10 15 10 23 0 9-4 18-10 24-5 6-14 10-23 10-9 0-18-4-24-10-6-6-9-15-9-24 0-8 4-17 9-23 6-6 15-10 24-10z m-9 42c2 3 5 4 9 4 3 0 6-1 9-4 2-2 3-5 3-9 0-3-1-6-3-8-3-3-5-4-9-4-4 0-7 1-9 4-3 2-4 5-4 8 0 4 1 7 4 9z"/>
</font>
</defs>
</svg>
